<?xml version="1.0" encoding="utf-8" standalone="no"?>
<!DOCTYPE svg PUBLIC "-//W3C//DTD SVG 1.1//EN"
  "http://www.w3.org/Graphics/SVG/1.1/DTD/svg11.dtd">
<!-- Created with matplotlib (http://matplotlib.sourceforge.net/) -->
<svg height="428pt" version="1.1" viewBox="0 0 861 428" width="861pt" xmlns="http://www.w3.org/2000/svg" xmlns:xlink="http://www.w3.org/1999/xlink">
 <defs>
  <style type="text/css">
*{stroke-linecap:square;stroke-linejoin:round;}
  </style>
 </defs>
 <g id="figure_1">
  <g id="patch_1">
   <path d="
M0 428.239
L861.166 428.239
L861.166 0
L0 0
z
" style="fill:#ffffff;"/>
  </g>
  <g id="axes_1">
   <g id="patch_2">
    <path d="
M40.5609 395.558
L845.07 395.558
L845.07 24.3575
L40.5609 24.3575
z
" style="fill:#ffffff;"/>
   </g>
   <g id="line2d_1">
    <path clip-path="url(#p6608d5733e)" d="
M40.5609 78.2477
L41.0079 67.0166
L41.4548 52.6536
L41.9018 30.5872
L42.3487 24.3575
L42.7957 35.2951
L43.2426 24.3575
L43.6896 33.9819
L44.1365 24.3575
L44.5835 33.6063
L45.0304 24.3575
L45.4774 32.3251
L45.9243 24.3575
L46.3713 31.5554
L46.8182 24.3575
L47.2652 31.9739
L47.7121 24.3575
L48.1591 31.9769
L48.606 24.3575
L49.053 32.2307
L49.4999 25.0791
L49.9469 33.4302
L50.3938 26.408
L50.8408 32.3178
L51.2877 25.6965
L51.7347 35.9282
L52.1816 29.0807
L52.6286 32.3564
L53.0755 29.6694
L53.5225 39.5533
L53.9694 37.648
L54.4164 31.2994
L54.8633 44.2621
L55.3103 35.1866
L55.7572 40.385
L56.2042 42.8028
L56.6511 30.3506
L57.0981 42.8272
L57.545 37.6179
L57.992 30.2277
L58.4389 44.2056
L58.8859 39.6298
L59.3328 30.2868
L59.7798 47.4708
L60.2267 35.6998
L60.6737 35.6401
L61.1206 48.5124
L61.5676 38.016
L62.0145 38.6633
L62.4614 51.7513
L62.9084 42.0863
L63.3553 43.1814
L63.8023 56.3865
L64.2492 47.3609
L64.6962 45.2061
L65.1431 38.5787
L65.5901 59.4918
L66.484 45.7583
L66.9309 45.3687
L67.3779 59.0442
L67.8248 56.6395
L68.2718 50.9505
L68.7187 53.8789
L69.1657 49.1183
L69.6126 62.9503
L70.0596 57.2103
L70.5065 60.2062
L71.4004 52.2444
L71.8474 66.2729
L72.2943 66.4248
L73.1882 59.5225
L73.6352 63.884
L74.5291 59.377
L74.976 57.7705
L75.423 71.8716
L75.8699 73.035
L76.7638 68.313
L77.2108 66.6154
L77.6577 69.0168
L78.5516 66.6547
L78.9986 65.8861
L79.4455 71.3795
L79.8925 70.6409
L80.7864 69.7125
L81.6803 69.3087
L82.1272 69.3246
L82.5742 69.5021
L83.0211 73.1711
L83.4681 73.3586
L85.2559 74.748
L87.0437 82.765
L88.8315 89.7126
L90.1723 94.2654
L91.5131 104.448
L95.9826 116.1
L96.4296 116.451
L97.3235 115.655
L98.2174 115.078
L99.5582 114.535
L100.899 114.287
L102.24 114.259
L103.581 114.363
L106.709 114.258
L112.073 114.095
L113.414 114.058
L114.755 114.247
L115.648 114.464
L116.542 114.938
L117.436 115.151
L118.33 115.175
L119.671 114.972
L121.459 114.448
L125.481 112.977
L127.716 115.9
L129.057 117.566
L130.398 119.525
L131.739 129.291
L133.079 137.244
L133.973 137.462
L134.867 137.909
L136.208 138.926
L136.655 141.042
L138.89 143.755
L142.018 147.976
L146.935 155.088
L153.192 164.114
L155.874 167.748
L158.109 170.359
L162.578 175.146
L164.813 177.086
L167.495 179.113
L171.07 181.493
L175.093 183.91
L192.524 193.083
L195.652 194.513
L196.099 195.439
L197.44 196.548
L199.228 195.409
L201.016 194.492
L202.804 193.874
L204.591 193.493
L206.826 193.275
L209.061 193.275
L210.402 193.357
L211.742 195.879
L212.636 199.473
L213.53 200.857
L213.977 201.146
L215.765 200.855
L216.659 200.895
L218.894 200.862
L223.81 200.903
L225.598 200.589
L226.045 200.483
L226.939 201.779
L227.833 201.97
L228.28 201.951
L236.772 198.259
L240.347 197.058
L242.582 196.426
L244.37 195.776
L248.392 193.642
L250.18 192.276
L252.415 190.258
L254.203 188.362
L254.65 187.85
L255.99 188.435
L257.331 188.744
L258.672 188.834
L260.013 188.697
L263.142 187.88
L266.717 186.715
L268.058 186.232
L269.846 183.156
L271.634 183.233
L273.868 179.568
L276.55 175.632
L277.444 174.412
L279.232 174.792
L281.02 174.99
L282.36 174.977
L284.148 175.237
L285.936 175.723
L286.83 176.078
L294.875 179.697
L298.451 181.298
L300.685 182.283
L302.026 182.794
L303.814 183.777
L305.155 184.716
L306.943 186.31
L309.177 188.684
L310.518 190.345
L320.351 202.828
L323.033 206.166
L324.821 206.085
L327.055 206.245
L329.737 206.702
L332.866 207.472
L336.441 208.368
L340.017 209.249
L344.486 210.544
L346.274 213.543
L348.062 216.102
L350.297 215.964
L353.425 216.032
L359.683 216.542
L364.599 217.218
L368.622 217.784
L375.326 215.916
L378.008 215.229
L379.795 217.473
L382.03 219.874
L384.265 221.917
L385.159 222.597
L391.416 220.245
L397.226 218.304
L403.037 216.606
L413.317 213.935
L418.233 213.076
L425.831 211.998
L429.854 211.37
L432.535 210.923
L434.323 213.046
L436.558 215.323
L438.793 217.341
L440.58 218.703
L442.815 217.341
L446.391 215.627
L449.073 214.601
L452.201 213.634
L456.224 212.642
L461.14 211.685
L466.95 210.788
L474.102 209.919
L488.404 208.205
L495.555 207.75
L501.366 207.575
L513.88 207.022
L515.668 209.563
L517.903 212.355
L519.244 213.782
L521.925 216.296
L523.713 217.819
L525.948 216.683
L528.183 215.8
L530.864 214.985
L533.993 214.276
L537.122 213.783
L539.356 213.412
L540.25 214.737
L541.591 214.224
L543.826 213.073
L546.061 211.597
L548.742 209.529
L551.871 206.857
L554.106 204.984
L555.893 203.569
L558.128 202.131
L559.916 201.036
L563.045 204.789
L566.173 208.213
L569.749 211.795
L573.324 215.077
L576.9 218.103
L579.135 219.71
L581.816 221.947
L584.945 224.845
L590.308 229.942
L595.672 234.764
L601.035 239.071
L601.482 239.063
L605.505 237.442
L609.527 236.025
L611.315 235.703
L614.891 235.449
L617.572 235.387
L619.807 238.417
L621.595 240.566
L625.171 243.95
L626.064 243.99
L630.534 243.78
L630.981 243.728
L632.769 242.92
L635.003 242.203
L637.238 241.592
L639.026 244.347
L642.155 244.622
L644.836 244.629
L648.412 244.907
L651.987 245.224
L657.351 244.798
L662.267 244.089
L665.843 243.849
L670.312 243.788
L676.57 243.937
L677.017 243.954
L678.804 246.655
L679.251 247.135
L681.039 247.274
L683.721 247.371
L685.509 224.952
L687.296 205.064
L689.531 183.023
L691.766 163.485
L694.001 145.96
L696.235 130.087
L698.47 115.593
L701.152 99.7219
L703.834 85.2468
L706.515 71.9475
L709.197 59.6514
L712.326 46.3919
L715.454 34.1377
L715.901 33.3277
L716.348 31.6732
L716.795 30.8437
L717.242 29.2302
L717.689 28.8063
L718.136 27.5922
L718.583 27.276
L719.03 26.0525
L719.477 25.8392
L719.924 25.2608
L720.371 25.1255
L720.818 24.5362
L722.605 24.3575
L723.052 24.4291
L723.499 24.3575
L723.946 24.429
L724.393 24.3575
L724.84 24.4289
L725.287 24.3575
L725.734 24.4288
L726.181 24.3575
L726.628 24.4287
L727.075 24.3575
L727.522 24.4286
L727.969 24.3575
L728.416 24.4286
L728.863 24.3575
L729.31 24.4285
L729.757 24.3575
L730.204 24.4284
L730.651 24.3575
L731.097 24.4283
L731.544 24.3575
L731.991 24.4282
L732.438 24.3575
L732.885 24.4281
L733.332 24.3575
L733.779 24.428
L734.226 24.3575
L734.673 24.428
L735.12 24.3575
L735.567 24.4279
L736.014 24.3575
L736.461 24.4278
L736.908 24.3575
L737.355 24.4277
L737.802 24.3575
L738.249 24.4276
L738.696 24.3575
L739.143 24.4275
L739.59 24.3575
L740.036 24.4274
L740.483 24.3575
L740.93 24.4274
L741.377 24.3575
L741.824 24.4273
L742.271 24.3575
L742.718 24.4272
L743.165 24.3575
L743.612 24.4271
L744.059 24.3575
L744.506 24.427
L744.953 24.3575
L745.4 24.4269
L745.847 24.3575
L746.294 24.4269
L746.741 24.3575
L747.188 24.4268
L747.635 24.3575
L748.082 24.4267
L748.529 24.3575
L748.975 24.4266
L749.422 24.3575
L749.869 24.4265
L750.316 24.3575
L750.763 24.4265
L751.21 24.3575
L751.657 24.4264
L752.104 24.3575
L752.551 24.4263
L752.998 24.3575
L753.445 24.4262
L753.892 24.3575
L754.339 24.4261
L754.786 24.3575
L755.233 24.426
L755.68 24.3575
L756.127 24.426
L756.574 24.3575
L757.021 24.4259
L757.467 24.3575
L757.914 24.4258
L758.361 24.3575
L758.808 24.4257
L759.255 24.3575
L759.702 24.4256
L760.149 24.3575
L760.596 24.4256
L761.043 24.3575
L761.49 24.4255
L761.937 24.3575
L762.384 24.4254
L762.831 24.3575
L763.278 24.4253
L763.725 24.3575
L764.172 24.4253
L764.619 24.3575
L765.066 24.4252
L765.513 24.3575
L765.96 24.4251
L766.406 24.3575
L766.853 24.425
L767.3 24.3575
L767.747 24.4249
L768.194 24.3575
L768.641 24.4249
L769.088 24.3575
L769.535 24.4248
L769.982 24.3575
L770.429 24.4247
L770.876 24.3575
L771.323 24.4246
L771.77 24.3575
L772.217 24.4245
L772.664 24.3575
L773.111 24.4245
L773.558 24.3575
L774.005 24.4244
L774.452 24.3575
L774.899 24.4243
L775.345 24.3575
L775.792 24.4242
L776.239 24.3575
L776.686 24.4242
L777.133 24.3575
L777.58 24.4241
L778.027 24.3575
L778.474 24.424
L778.921 24.3575
L779.368 24.4239
L779.815 24.3575
L780.262 24.4239
L780.709 24.3575
L781.156 24.4238
L781.603 24.3575
L782.05 24.4237
L782.497 24.3575
L782.944 24.4236
L783.391 24.3575
L783.837 24.4236
L784.284 24.3575
L784.731 24.4235
L785.178 24.3575
L785.625 24.4234
L786.072 24.3575
L786.519 24.4233
L786.966 24.3575
L787.413 24.4233
L787.86 24.3575
L788.307 24.4232
L788.754 24.3575
L789.201 24.4231
L789.648 24.3575
L790.095 24.423
L790.542 24.3575
L790.989 24.423
L791.436 24.3575
L791.883 24.4229
L792.33 24.3575
L792.776 24.4228
L793.223 24.3575
L793.67 24.4227
L794.117 24.3575
L794.564 24.4227
L795.011 24.3575
L795.458 24.4226
L795.905 24.3575
L796.352 24.4225
L796.799 24.3575
L797.246 24.4225
L797.693 24.3575
L798.14 24.4224
L798.587 24.3575
L799.034 24.4223
L799.481 24.3575
L799.928 24.4222
L800.375 24.3575
L800.822 24.4222
L801.269 24.3575
L801.715 24.4221
L802.162 24.3575
L802.609 24.422
L803.056 24.3575
L803.503 24.4219
L803.95 24.3575
L804.397 24.4219
L804.844 24.3575
L805.291 24.4218
L805.738 24.3575
L806.185 24.4217
L806.632 24.3575
L807.079 24.4217
L807.526 24.3575
L807.973 24.4216
L808.42 24.3575
L808.867 24.4215
L809.314 24.3575
L809.761 24.4215
L810.207 24.3575
L810.654 24.4214
L811.101 24.3575
L811.548 24.4213
L811.995 24.3575
L812.442 24.4212
L812.889 24.3575
L813.336 24.4212
L813.783 24.3575
L814.23 24.4211
L814.677 24.3575
L815.124 24.421
L815.571 24.3575
L816.018 24.421
L816.465 24.3575
L816.912 24.4209
L817.359 24.3575
L817.806 24.4208
L818.253 24.3575
L818.7 24.4208
L819.146 24.3575
L819.593 24.4207
L820.04 24.3575
L820.487 24.4206
L820.934 24.3575
L821.381 24.4206
L821.828 24.3575
L822.275 24.4205
L822.722 24.3575
L823.169 24.4204
L823.616 24.3575
L824.063 24.4203
L824.51 24.3575
L824.957 24.4203
L825.404 24.3575
L825.851 24.4202
L826.298 24.3575
L826.745 24.4201
L827.192 24.3575
L827.639 24.4201
L828.085 24.3575
L828.532 24.42
L828.979 24.3575
L829.426 24.4199
L829.873 24.3575
L830.32 24.4199
L830.767 24.3575
L831.214 24.4198
L831.661 24.3575
L832.108 24.4197
L832.555 24.3575
L833.002 24.4197
L833.449 24.3575
L833.896 24.4196
L834.343 24.3575
L834.79 24.4195
L835.237 24.3575
L835.684 24.4195
L836.131 24.3575
L836.577 24.4194
L837.024 24.3575
L837.471 24.4193
L837.918 24.3575
L838.365 24.4193
L838.812 24.3575
L839.259 24.4192
L839.706 24.3575
L840.153 24.4192
L840.6 24.3575
L841.047 24.4191
L841.494 24.3575
L841.941 24.419
L842.388 24.3575
L842.835 24.419
L843.282 24.3575
L843.729 24.4189
L844.176 24.3575
L844.623 24.4188
L844.623 24.4188" style="fill:none;stroke:#0000ff;"/>
   </g>
   <g id="matplotlib.axis_1">
    <g id="xtick_1">
     <g id="line2d_2">
      <path clip-path="url(#p6608d5733e)" d="
M40.5609 395.558
L40.5609 24.3575" style="fill:none;stroke:#000000;stroke-dasharray:1.000000,3.000000;stroke-dashoffset:0.0;stroke-linecap:butt;stroke-width:0.5;"/>
     </g>
     <g id="line2d_3">
      <defs>
       <path d="
M0 0
L0 -4" id="m0012dd4eef" style="stroke:#000000;stroke-linecap:butt;stroke-width:0.5;"/>
      </defs>
      <g>
       <use style="stroke:#000000;stroke-linecap:butt;stroke-width:0.5;" x="40.5609375" xlink:href="#m0012dd4eef" y="395.5575"/>
      </g>
     </g>
     <g id="line2d_4">
      <defs>
       <path d="
M0 0
L0 4" id="m476344969c" style="stroke:#000000;stroke-linecap:butt;stroke-width:0.5;"/>
      </defs>
      <g>
       <use style="stroke:#000000;stroke-linecap:butt;stroke-width:0.5;" x="40.5609375" xlink:href="#m476344969c" y="24.3575"/>
      </g>
     </g>
     <g id="text_1">
      <!-- 0 -->
      <defs>
       <path d="
M31.7812 66.4062
Q24.1719 66.4062 20.3281 58.9062
Q16.5 51.4219 16.5 36.375
Q16.5 21.3906 20.3281 13.8906
Q24.1719 6.39062 31.7812 6.39062
Q39.4531 6.39062 43.2812 13.8906
Q47.125 21.3906 47.125 36.375
Q47.125 51.4219 43.2812 58.9062
Q39.4531 66.4062 31.7812 66.4062
M31.7812 74.2188
Q44.0469 74.2188 50.5156 64.5156
Q56.9844 54.8281 56.9844 36.375
Q56.9844 17.9688 50.5156 8.26562
Q44.0469 -1.42188 31.7812 -1.42188
Q19.5312 -1.42188 13.0625 8.26562
Q6.59375 17.9688 6.59375 36.375
Q6.59375 54.8281 13.0625 64.5156
Q19.5312 74.2188 31.7812 74.2188" id="BitstreamVeraSans-Roman-30"/>
      </defs>
      <g transform="translate(38.04140625 406.979375)scale(0.1 -0.1)">
       <use xlink:href="#BitstreamVeraSans-Roman-30"/>
      </g>
     </g>
    </g>
    <g id="xtick_2">
     <g id="line2d_5">
      <path clip-path="url(#p6608d5733e)" d="
M129.951 395.558
L129.951 24.3575" style="fill:none;stroke:#000000;stroke-dasharray:1.000000,3.000000;stroke-dashoffset:0.0;stroke-linecap:butt;stroke-width:0.5;"/>
     </g>
     <g id="line2d_6">
      <g>
       <use style="stroke:#000000;stroke-linecap:butt;stroke-width:0.5;" x="129.95078125" xlink:href="#m0012dd4eef" y="395.5575"/>
      </g>
     </g>
     <g id="line2d_7">
      <g>
       <use style="stroke:#000000;stroke-linecap:butt;stroke-width:0.5;" x="129.95078125" xlink:href="#m476344969c" y="24.3575"/>
      </g>
     </g>
     <g id="text_2">
      <!-- 100 -->
      <defs>
       <path d="
M12.4062 8.29688
L28.5156 8.29688
L28.5156 63.9219
L10.9844 60.4062
L10.9844 69.3906
L28.4219 72.9062
L38.2812 72.9062
L38.2812 8.29688
L54.3906 8.29688
L54.3906 0
L12.4062 0
z
" id="BitstreamVeraSans-Roman-31"/>
      </defs>
      <g transform="translate(121.28828125 406.979375)scale(0.1 -0.1)">
       <use xlink:href="#BitstreamVeraSans-Roman-31"/>
       <use x="63.623046875" xlink:href="#BitstreamVeraSans-Roman-30"/>
       <use x="127.24609375" xlink:href="#BitstreamVeraSans-Roman-30"/>
      </g>
     </g>
    </g>
    <g id="xtick_3">
     <g id="line2d_8">
      <path clip-path="url(#p6608d5733e)" d="
M219.341 395.558
L219.341 24.3575" style="fill:none;stroke:#000000;stroke-dasharray:1.000000,3.000000;stroke-dashoffset:0.0;stroke-linecap:butt;stroke-width:0.5;"/>
     </g>
     <g id="line2d_9">
      <g>
       <use style="stroke:#000000;stroke-linecap:butt;stroke-width:0.5;" x="219.340625" xlink:href="#m0012dd4eef" y="395.5575"/>
      </g>
     </g>
     <g id="line2d_10">
      <g>
       <use style="stroke:#000000;stroke-linecap:butt;stroke-width:0.5;" x="219.340625" xlink:href="#m476344969c" y="24.3575"/>
      </g>
     </g>
     <g id="text_3">
      <!-- 200 -->
      <defs>
       <path d="
M19.1875 8.29688
L53.6094 8.29688
L53.6094 0
L7.32812 0
L7.32812 8.29688
Q12.9375 14.1094 22.625 23.8906
Q32.3281 33.6875 34.8125 36.5312
Q39.5469 41.8438 41.4219 45.5312
Q43.3125 49.2188 43.3125 52.7812
Q43.3125 58.5938 39.2344 62.25
Q35.1562 65.9219 28.6094 65.9219
Q23.9688 65.9219 18.8125 64.3125
Q13.6719 62.7031 7.8125 59.4219
L7.8125 69.3906
Q13.7656 71.7812 18.9375 73
Q24.125 74.2188 28.4219 74.2188
Q39.75 74.2188 46.4844 68.5469
Q53.2188 62.8906 53.2188 53.4219
Q53.2188 48.9219 51.5312 44.8906
Q49.8594 40.875 45.4062 35.4062
Q44.1875 33.9844 37.6406 27.2188
Q31.1094 20.4531 19.1875 8.29688" id="BitstreamVeraSans-Roman-32"/>
      </defs>
      <g transform="translate(210.4953125 406.979375)scale(0.1 -0.1)">
       <use xlink:href="#BitstreamVeraSans-Roman-32"/>
       <use x="63.623046875" xlink:href="#BitstreamVeraSans-Roman-30"/>
       <use x="127.24609375" xlink:href="#BitstreamVeraSans-Roman-30"/>
      </g>
     </g>
    </g>
    <g id="xtick_4">
     <g id="line2d_11">
      <path clip-path="url(#p6608d5733e)" d="
M308.73 395.558
L308.73 24.3575" style="fill:none;stroke:#000000;stroke-dasharray:1.000000,3.000000;stroke-dashoffset:0.0;stroke-linecap:butt;stroke-width:0.5;"/>
     </g>
     <g id="line2d_12">
      <g>
       <use style="stroke:#000000;stroke-linecap:butt;stroke-width:0.5;" x="308.73046875" xlink:href="#m0012dd4eef" y="395.5575"/>
      </g>
     </g>
     <g id="line2d_13">
      <g>
       <use style="stroke:#000000;stroke-linecap:butt;stroke-width:0.5;" x="308.73046875" xlink:href="#m476344969c" y="24.3575"/>
      </g>
     </g>
     <g id="text_4">
      <!-- 300 -->
      <defs>
       <path d="
M40.5781 39.3125
Q47.6562 37.7969 51.625 33
Q55.6094 28.2188 55.6094 21.1875
Q55.6094 10.4062 48.1875 4.48438
Q40.7656 -1.42188 27.0938 -1.42188
Q22.5156 -1.42188 17.6562 -0.515625
Q12.7969 0.390625 7.625 2.20312
L7.625 11.7188
Q11.7188 9.32812 16.5938 8.10938
Q21.4844 6.89062 26.8125 6.89062
Q36.0781 6.89062 40.9375 10.5469
Q45.7969 14.2031 45.7969 21.1875
Q45.7969 27.6406 41.2812 31.2656
Q36.7656 34.9062 28.7188 34.9062
L20.2188 34.9062
L20.2188 43.0156
L29.1094 43.0156
Q36.375 43.0156 40.2344 45.9219
Q44.0938 48.8281 44.0938 54.2969
Q44.0938 59.9062 40.1094 62.9062
Q36.1406 65.9219 28.7188 65.9219
Q24.6562 65.9219 20.0156 65.0312
Q15.375 64.1562 9.8125 62.3125
L9.8125 71.0938
Q15.4375 72.6562 20.3438 73.4375
Q25.25 74.2188 29.5938 74.2188
Q40.8281 74.2188 47.3594 69.1094
Q53.9062 64.0156 53.9062 55.3281
Q53.9062 49.2656 50.4375 45.0938
Q46.9688 40.9219 40.5781 39.3125" id="BitstreamVeraSans-Roman-33"/>
      </defs>
      <g transform="translate(299.9 406.979375)scale(0.1 -0.1)">
       <use xlink:href="#BitstreamVeraSans-Roman-33"/>
       <use x="63.623046875" xlink:href="#BitstreamVeraSans-Roman-30"/>
       <use x="127.24609375" xlink:href="#BitstreamVeraSans-Roman-30"/>
      </g>
     </g>
    </g>
    <g id="xtick_5">
     <g id="line2d_14">
      <path clip-path="url(#p6608d5733e)" d="
M398.12 395.558
L398.12 24.3575" style="fill:none;stroke:#000000;stroke-dasharray:1.000000,3.000000;stroke-dashoffset:0.0;stroke-linecap:butt;stroke-width:0.5;"/>
     </g>
     <g id="line2d_15">
      <g>
       <use style="stroke:#000000;stroke-linecap:butt;stroke-width:0.5;" x="398.1203125" xlink:href="#m0012dd4eef" y="395.5575"/>
      </g>
     </g>
     <g id="line2d_16">
      <g>
       <use style="stroke:#000000;stroke-linecap:butt;stroke-width:0.5;" x="398.1203125" xlink:href="#m476344969c" y="24.3575"/>
      </g>
     </g>
     <g id="text_5">
      <!-- 400 -->
      <defs>
       <path d="
M37.7969 64.3125
L12.8906 25.3906
L37.7969 25.3906
z

M35.2031 72.9062
L47.6094 72.9062
L47.6094 25.3906
L58.0156 25.3906
L58.0156 17.1875
L47.6094 17.1875
L47.6094 0
L37.7969 0
L37.7969 17.1875
L4.89062 17.1875
L4.89062 26.7031
z
" id="BitstreamVeraSans-Roman-34"/>
      </defs>
      <g transform="translate(389.153125 406.979375)scale(0.1 -0.1)">
       <use xlink:href="#BitstreamVeraSans-Roman-34"/>
       <use x="63.623046875" xlink:href="#BitstreamVeraSans-Roman-30"/>
       <use x="127.24609375" xlink:href="#BitstreamVeraSans-Roman-30"/>
      </g>
     </g>
    </g>
    <g id="xtick_6">
     <g id="line2d_17">
      <path clip-path="url(#p6608d5733e)" d="
M487.51 395.558
L487.51 24.3575" style="fill:none;stroke:#000000;stroke-dasharray:1.000000,3.000000;stroke-dashoffset:0.0;stroke-linecap:butt;stroke-width:0.5;"/>
     </g>
     <g id="line2d_18">
      <g>
       <use style="stroke:#000000;stroke-linecap:butt;stroke-width:0.5;" x="487.51015625" xlink:href="#m0012dd4eef" y="395.5575"/>
      </g>
     </g>
     <g id="line2d_19">
      <g>
       <use style="stroke:#000000;stroke-linecap:butt;stroke-width:0.5;" x="487.51015625" xlink:href="#m476344969c" y="24.3575"/>
      </g>
     </g>
     <g id="text_6">
      <!-- 500 -->
      <defs>
       <path d="
M10.7969 72.9062
L49.5156 72.9062
L49.5156 64.5938
L19.8281 64.5938
L19.8281 46.7344
Q21.9688 47.4688 24.1094 47.8281
Q26.2656 48.1875 28.4219 48.1875
Q40.625 48.1875 47.75 41.5
Q54.8906 34.8125 54.8906 23.3906
Q54.8906 11.625 47.5625 5.09375
Q40.2344 -1.42188 26.9062 -1.42188
Q22.3125 -1.42188 17.5469 -0.640625
Q12.7969 0.140625 7.71875 1.70312
L7.71875 11.625
Q12.1094 9.23438 16.7969 8.0625
Q21.4844 6.89062 26.7031 6.89062
Q35.1562 6.89062 40.0781 11.3281
Q45.0156 15.7656 45.0156 23.3906
Q45.0156 31 40.0781 35.4375
Q35.1562 39.8906 26.7031 39.8906
Q22.75 39.8906 18.8125 39.0156
Q14.8906 38.1406 10.7969 36.2812
z
" id="BitstreamVeraSans-Roman-35"/>
      </defs>
      <g transform="translate(478.684375 406.979375)scale(0.1 -0.1)">
       <use xlink:href="#BitstreamVeraSans-Roman-35"/>
       <use x="63.623046875" xlink:href="#BitstreamVeraSans-Roman-30"/>
       <use x="127.24609375" xlink:href="#BitstreamVeraSans-Roman-30"/>
      </g>
     </g>
    </g>
    <g id="xtick_7">
     <g id="line2d_20">
      <path clip-path="url(#p6608d5733e)" d="
M576.9 395.558
L576.9 24.3575" style="fill:none;stroke:#000000;stroke-dasharray:1.000000,3.000000;stroke-dashoffset:0.0;stroke-linecap:butt;stroke-width:0.5;"/>
     </g>
     <g id="line2d_21">
      <g>
       <use style="stroke:#000000;stroke-linecap:butt;stroke-width:0.5;" x="576.9" xlink:href="#m0012dd4eef" y="395.5575"/>
      </g>
     </g>
     <g id="line2d_22">
      <g>
       <use style="stroke:#000000;stroke-linecap:butt;stroke-width:0.5;" x="576.9" xlink:href="#m476344969c" y="24.3575"/>
      </g>
     </g>
     <g id="text_7">
      <!-- 600 -->
      <defs>
       <path d="
M33.0156 40.375
Q26.375 40.375 22.4844 35.8281
Q18.6094 31.2969 18.6094 23.3906
Q18.6094 15.5312 22.4844 10.9531
Q26.375 6.39062 33.0156 6.39062
Q39.6562 6.39062 43.5312 10.9531
Q47.4062 15.5312 47.4062 23.3906
Q47.4062 31.2969 43.5312 35.8281
Q39.6562 40.375 33.0156 40.375
M52.5938 71.2969
L52.5938 62.3125
Q48.875 64.0625 45.0938 64.9844
Q41.3125 65.9219 37.5938 65.9219
Q27.8281 65.9219 22.6719 59.3281
Q17.5312 52.7344 16.7969 39.4062
Q19.6719 43.6562 24.0156 45.9219
Q28.375 48.1875 33.5938 48.1875
Q44.5781 48.1875 50.9531 41.5156
Q57.3281 34.8594 57.3281 23.3906
Q57.3281 12.1562 50.6875 5.35938
Q44.0469 -1.42188 33.0156 -1.42188
Q20.3594 -1.42188 13.6719 8.26562
Q6.98438 17.9688 6.98438 36.375
Q6.98438 53.6562 15.1875 63.9375
Q23.3906 74.2188 37.2031 74.2188
Q40.9219 74.2188 44.7031 73.4844
Q48.4844 72.75 52.5938 71.2969" id="BitstreamVeraSans-Roman-36"/>
      </defs>
      <g transform="translate(568.0375 406.979375)scale(0.1 -0.1)">
       <use xlink:href="#BitstreamVeraSans-Roman-36"/>
       <use x="63.623046875" xlink:href="#BitstreamVeraSans-Roman-30"/>
       <use x="127.24609375" xlink:href="#BitstreamVeraSans-Roman-30"/>
      </g>
     </g>
    </g>
    <g id="xtick_8">
     <g id="line2d_23">
      <path clip-path="url(#p6608d5733e)" d="
M666.29 395.558
L666.29 24.3575" style="fill:none;stroke:#000000;stroke-dasharray:1.000000,3.000000;stroke-dashoffset:0.0;stroke-linecap:butt;stroke-width:0.5;"/>
     </g>
     <g id="line2d_24">
      <g>
       <use style="stroke:#000000;stroke-linecap:butt;stroke-width:0.5;" x="666.28984375" xlink:href="#m0012dd4eef" y="395.5575"/>
      </g>
     </g>
     <g id="line2d_25">
      <g>
       <use style="stroke:#000000;stroke-linecap:butt;stroke-width:0.5;" x="666.28984375" xlink:href="#m476344969c" y="24.3575"/>
      </g>
     </g>
     <g id="text_8">
      <!-- 700 -->
      <defs>
       <path d="
M8.20312 72.9062
L55.0781 72.9062
L55.0781 68.7031
L28.6094 0
L18.3125 0
L43.2188 64.5938
L8.20312 64.5938
z
" id="BitstreamVeraSans-Roman-37"/>
      </defs>
      <g transform="translate(657.48828125 406.979375)scale(0.1 -0.1)">
       <use xlink:href="#BitstreamVeraSans-Roman-37"/>
       <use x="63.623046875" xlink:href="#BitstreamVeraSans-Roman-30"/>
       <use x="127.24609375" xlink:href="#BitstreamVeraSans-Roman-30"/>
      </g>
     </g>
    </g>
    <g id="xtick_9">
     <g id="line2d_26">
      <path clip-path="url(#p6608d5733e)" d="
M755.68 395.558
L755.68 24.3575" style="fill:none;stroke:#000000;stroke-dasharray:1.000000,3.000000;stroke-dashoffset:0.0;stroke-linecap:butt;stroke-width:0.5;"/>
     </g>
     <g id="line2d_27">
      <g>
       <use style="stroke:#000000;stroke-linecap:butt;stroke-width:0.5;" x="755.6796875" xlink:href="#m0012dd4eef" y="395.5575"/>
      </g>
     </g>
     <g id="line2d_28">
      <g>
       <use style="stroke:#000000;stroke-linecap:butt;stroke-width:0.5;" x="755.6796875" xlink:href="#m476344969c" y="24.3575"/>
      </g>
     </g>
     <g id="text_9">
      <!-- 800 -->
      <defs>
       <path d="
M31.7812 34.625
Q24.75 34.625 20.7188 30.8594
Q16.7031 27.0938 16.7031 20.5156
Q16.7031 13.9219 20.7188 10.1562
Q24.75 6.39062 31.7812 6.39062
Q38.8125 6.39062 42.8594 10.1719
Q46.9219 13.9688 46.9219 20.5156
Q46.9219 27.0938 42.8906 30.8594
Q38.875 34.625 31.7812 34.625
M21.9219 38.8125
Q15.5781 40.375 12.0312 44.7188
Q8.5 49.0781 8.5 55.3281
Q8.5 64.0625 14.7188 69.1406
Q20.9531 74.2188 31.7812 74.2188
Q42.6719 74.2188 48.875 69.1406
Q55.0781 64.0625 55.0781 55.3281
Q55.0781 49.0781 51.5312 44.7188
Q48 40.375 41.7031 38.8125
Q48.8281 37.1562 52.7969 32.3125
Q56.7812 27.4844 56.7812 20.5156
Q56.7812 9.90625 50.3125 4.23438
Q43.8438 -1.42188 31.7812 -1.42188
Q19.7344 -1.42188 13.25 4.23438
Q6.78125 9.90625 6.78125 20.5156
Q6.78125 27.4844 10.7812 32.3125
Q14.7969 37.1562 21.9219 38.8125
M18.3125 54.3906
Q18.3125 48.7344 21.8438 45.5625
Q25.3906 42.3906 31.7812 42.3906
Q38.1406 42.3906 41.7188 45.5625
Q45.3125 48.7344 45.3125 54.3906
Q45.3125 60.0625 41.7188 63.2344
Q38.1406 66.4062 31.7812 66.4062
Q25.3906 66.4062 21.8438 63.2344
Q18.3125 60.0625 18.3125 54.3906" id="BitstreamVeraSans-Roman-38"/>
      </defs>
      <g transform="translate(746.80703125 406.979375)scale(0.1 -0.1)">
       <use xlink:href="#BitstreamVeraSans-Roman-38"/>
       <use x="63.623046875" xlink:href="#BitstreamVeraSans-Roman-30"/>
       <use x="127.24609375" xlink:href="#BitstreamVeraSans-Roman-30"/>
      </g>
     </g>
    </g>
    <g id="xtick_10">
     <g id="line2d_29">
      <path clip-path="url(#p6608d5733e)" d="
M845.07 395.558
L845.07 24.3575" style="fill:none;stroke:#000000;stroke-dasharray:1.000000,3.000000;stroke-dashoffset:0.0;stroke-linecap:butt;stroke-width:0.5;"/>
     </g>
     <g id="line2d_30">
      <g>
       <use style="stroke:#000000;stroke-linecap:butt;stroke-width:0.5;" x="845.06953125" xlink:href="#m0012dd4eef" y="395.5575"/>
      </g>
     </g>
     <g id="line2d_31">
      <g>
       <use style="stroke:#000000;stroke-linecap:butt;stroke-width:0.5;" x="845.06953125" xlink:href="#m476344969c" y="24.3575"/>
      </g>
     </g>
     <g id="text_10">
      <!-- 900 -->
      <defs>
       <path d="
M10.9844 1.51562
L10.9844 10.5
Q14.7031 8.73438 18.5 7.8125
Q22.3125 6.89062 25.9844 6.89062
Q35.75 6.89062 40.8906 13.4531
Q46.0469 20.0156 46.7812 33.4062
Q43.9531 29.2031 39.5938 26.9531
Q35.25 24.7031 29.9844 24.7031
Q19.0469 24.7031 12.6719 31.3125
Q6.29688 37.9375 6.29688 49.4219
Q6.29688 60.6406 12.9375 67.4219
Q19.5781 74.2188 30.6094 74.2188
Q43.2656 74.2188 49.9219 64.5156
Q56.5938 54.8281 56.5938 36.375
Q56.5938 19.1406 48.4062 8.85938
Q40.2344 -1.42188 26.4219 -1.42188
Q22.7031 -1.42188 18.8906 -0.6875
Q15.0938 0.046875 10.9844 1.51562
M30.6094 32.4219
Q37.25 32.4219 41.125 36.9531
Q45.0156 41.5 45.0156 49.4219
Q45.0156 57.2812 41.125 61.8438
Q37.25 66.4062 30.6094 66.4062
Q23.9688 66.4062 20.0938 61.8438
Q16.2188 57.2812 16.2188 49.4219
Q16.2188 41.5 20.0938 36.9531
Q23.9688 32.4219 30.6094 32.4219" id="BitstreamVeraSans-Roman-39"/>
      </defs>
      <g transform="translate(836.17265625 406.979375)scale(0.1 -0.1)">
       <use xlink:href="#BitstreamVeraSans-Roman-39"/>
       <use x="63.623046875" xlink:href="#BitstreamVeraSans-Roman-30"/>
       <use x="127.24609375" xlink:href="#BitstreamVeraSans-Roman-30"/>
      </g>
     </g>
    </g>
    <g id="text_11">
     <!-- Time (second) -->
     <defs>
      <path d="
M45.4062 46.3906
L45.4062 75.9844
L54.3906 75.9844
L54.3906 0
L45.4062 0
L45.4062 8.20312
Q42.5781 3.32812 38.25 0.953125
Q33.9375 -1.42188 27.875 -1.42188
Q17.9688 -1.42188 11.7344 6.48438
Q5.51562 14.4062 5.51562 27.2969
Q5.51562 40.1875 11.7344 48.0938
Q17.9688 56 27.875 56
Q33.9375 56 38.25 53.625
Q42.5781 51.2656 45.4062 46.3906
M14.7969 27.2969
Q14.7969 17.3906 18.875 11.75
Q22.9531 6.10938 30.0781 6.10938
Q37.2031 6.10938 41.2969 11.75
Q45.4062 17.3906 45.4062 27.2969
Q45.4062 37.2031 41.2969 42.8438
Q37.2031 48.4844 30.0781 48.4844
Q22.9531 48.4844 18.875 42.8438
Q14.7969 37.2031 14.7969 27.2969" id="BitstreamVeraSans-Roman-64"/>
      <path id="BitstreamVeraSans-Roman-20"/>
      <path d="
M54.8906 33.0156
L54.8906 0
L45.9062 0
L45.9062 32.7188
Q45.9062 40.4844 42.875 44.3281
Q39.8438 48.1875 33.7969 48.1875
Q26.5156 48.1875 22.3125 43.5469
Q18.1094 38.9219 18.1094 30.9062
L18.1094 0
L9.07812 0
L9.07812 54.6875
L18.1094 54.6875
L18.1094 46.1875
Q21.3438 51.125 25.7031 53.5625
Q30.0781 56 35.7969 56
Q45.2188 56 50.0469 50.1719
Q54.8906 44.3438 54.8906 33.0156" id="BitstreamVeraSans-Roman-6e"/>
      <path d="
M31 75.875
Q24.4688 64.6562 21.2812 53.6562
Q18.1094 42.6719 18.1094 31.3906
Q18.1094 20.125 21.3125 9.0625
Q24.5156 -2 31 -13.1875
L23.1875 -13.1875
Q15.875 -1.70312 12.2344 9.375
Q8.59375 20.4531 8.59375 31.3906
Q8.59375 42.2812 12.2031 53.3125
Q15.8281 64.3594 23.1875 75.875
z
" id="BitstreamVeraSans-Roman-28"/>
      <path d="
M30.6094 48.3906
Q23.3906 48.3906 19.1875 42.75
Q14.9844 37.1094 14.9844 27.2969
Q14.9844 17.4844 19.1562 11.8438
Q23.3438 6.20312 30.6094 6.20312
Q37.7969 6.20312 41.9844 11.8594
Q46.1875 17.5312 46.1875 27.2969
Q46.1875 37.0156 41.9844 42.7031
Q37.7969 48.3906 30.6094 48.3906
M30.6094 56
Q42.3281 56 49.0156 48.375
Q55.7188 40.7656 55.7188 27.2969
Q55.7188 13.875 49.0156 6.21875
Q42.3281 -1.42188 30.6094 -1.42188
Q18.8438 -1.42188 12.1719 6.21875
Q5.51562 13.875 5.51562 27.2969
Q5.51562 40.7656 12.1719 48.375
Q18.8438 56 30.6094 56" id="BitstreamVeraSans-Roman-6f"/>
      <path d="
M8.01562 75.875
L15.8281 75.875
Q23.1406 64.3594 26.7812 53.3125
Q30.4219 42.2812 30.4219 31.3906
Q30.4219 20.4531 26.7812 9.375
Q23.1406 -1.70312 15.8281 -13.1875
L8.01562 -13.1875
Q14.5 -2 17.7031 9.0625
Q20.9062 20.125 20.9062 31.3906
Q20.9062 42.6719 17.7031 53.6562
Q14.5 64.6562 8.01562 75.875" id="BitstreamVeraSans-Roman-29"/>
      <path d="
M9.42188 54.6875
L18.4062 54.6875
L18.4062 0
L9.42188 0
z

M9.42188 75.9844
L18.4062 75.9844
L18.4062 64.5938
L9.42188 64.5938
z
" id="BitstreamVeraSans-Roman-69"/>
      <path d="
M52 44.1875
Q55.375 50.25 60.0625 53.125
Q64.75 56 71.0938 56
Q79.6406 56 84.2812 50.0156
Q88.9219 44.0469 88.9219 33.0156
L88.9219 0
L79.8906 0
L79.8906 32.7188
Q79.8906 40.5781 77.0938 44.375
Q74.3125 48.1875 68.6094 48.1875
Q61.625 48.1875 57.5625 43.5469
Q53.5156 38.9219 53.5156 30.9062
L53.5156 0
L44.4844 0
L44.4844 32.7188
Q44.4844 40.625 41.7031 44.4062
Q38.9219 48.1875 33.1094 48.1875
Q26.2188 48.1875 22.1562 43.5312
Q18.1094 38.875 18.1094 30.9062
L18.1094 0
L9.07812 0
L9.07812 54.6875
L18.1094 54.6875
L18.1094 46.1875
Q21.1875 51.2188 25.4844 53.6094
Q29.7812 56 35.6875 56
Q41.6562 56 45.8281 52.9688
Q50 49.9531 52 44.1875" id="BitstreamVeraSans-Roman-6d"/>
      <path d="
M56.2031 29.5938
L56.2031 25.2031
L14.8906 25.2031
Q15.4844 15.9219 20.4844 11.0625
Q25.4844 6.20312 34.4219 6.20312
Q39.5938 6.20312 44.4531 7.46875
Q49.3125 8.73438 54.1094 11.2812
L54.1094 2.78125
Q49.2656 0.734375 44.1875 -0.34375
Q39.1094 -1.42188 33.8906 -1.42188
Q20.7969 -1.42188 13.1562 6.1875
Q5.51562 13.8125 5.51562 26.8125
Q5.51562 40.2344 12.7656 48.1094
Q20.0156 56 32.3281 56
Q43.3594 56 49.7812 48.8906
Q56.2031 41.7969 56.2031 29.5938
M47.2188 32.2344
Q47.125 39.5938 43.0938 43.9844
Q39.0625 48.3906 32.4219 48.3906
Q24.9062 48.3906 20.3906 44.1406
Q15.875 39.8906 15.1875 32.1719
z
" id="BitstreamVeraSans-Roman-65"/>
      <path d="
M-0.296875 72.9062
L61.375 72.9062
L61.375 64.5938
L35.5 64.5938
L35.5 0
L25.5938 0
L25.5938 64.5938
L-0.296875 64.5938
z
" id="BitstreamVeraSans-Roman-54"/>
      <path d="
M44.2812 53.0781
L44.2812 44.5781
Q40.4844 46.5312 36.375 47.5
Q32.2812 48.4844 27.875 48.4844
Q21.1875 48.4844 17.8438 46.4375
Q14.5 44.3906 14.5 40.2812
Q14.5 37.1562 16.8906 35.375
Q19.2812 33.5938 26.5156 31.9844
L29.5938 31.2969
Q39.1562 29.25 43.1875 25.5156
Q47.2188 21.7812 47.2188 15.0938
Q47.2188 7.46875 41.1875 3.01562
Q35.1562 -1.42188 24.6094 -1.42188
Q20.2188 -1.42188 15.4531 -0.5625
Q10.6875 0.296875 5.42188 2
L5.42188 11.2812
Q10.4062 8.6875 15.2344 7.39062
Q20.0625 6.10938 24.8125 6.10938
Q31.1562 6.10938 34.5625 8.28125
Q37.9844 10.4531 37.9844 14.4062
Q37.9844 18.0625 35.5156 20.0156
Q33.0625 21.9688 24.7031 23.7812
L21.5781 24.5156
Q13.2344 26.2656 9.51562 29.9062
Q5.8125 33.5469 5.8125 39.8906
Q5.8125 47.6094 11.2812 51.7969
Q16.75 56 26.8125 56
Q31.7812 56 36.1719 55.2656
Q40.5781 54.5469 44.2812 53.0781" id="BitstreamVeraSans-Roman-73"/>
      <path d="
M48.7812 52.5938
L48.7812 44.1875
Q44.9688 46.2969 41.1406 47.3438
Q37.3125 48.3906 33.4062 48.3906
Q24.6562 48.3906 19.8125 42.8438
Q14.9844 37.3125 14.9844 27.2969
Q14.9844 17.2812 19.8125 11.7344
Q24.6562 6.20312 33.4062 6.20312
Q37.3125 6.20312 41.1406 7.25
Q44.9688 8.29688 48.7812 10.4062
L48.7812 2.09375
Q45.0156 0.34375 40.9844 -0.53125
Q36.9688 -1.42188 32.4219 -1.42188
Q20.0625 -1.42188 12.7812 6.34375
Q5.51562 14.1094 5.51562 27.2969
Q5.51562 40.6719 12.8594 48.3281
Q20.2188 56 33.0156 56
Q37.1562 56 41.1094 55.1406
Q45.0625 54.2969 48.7812 52.5938" id="BitstreamVeraSans-Roman-63"/>
     </defs>
     <g transform="translate(407.673046875 419.72)scale(0.1 -0.1)">
      <use xlink:href="#BitstreamVeraSans-Roman-54"/>
      <use x="57.958984375" xlink:href="#BitstreamVeraSans-Roman-69"/>
      <use x="85.7421875" xlink:href="#BitstreamVeraSans-Roman-6d"/>
      <use x="183.154296875" xlink:href="#BitstreamVeraSans-Roman-65"/>
      <use x="244.677734375" xlink:href="#BitstreamVeraSans-Roman-20"/>
      <use x="276.46484375" xlink:href="#BitstreamVeraSans-Roman-28"/>
      <use x="315.478515625" xlink:href="#BitstreamVeraSans-Roman-73"/>
      <use x="367.578125" xlink:href="#BitstreamVeraSans-Roman-65"/>
      <use x="429.1015625" xlink:href="#BitstreamVeraSans-Roman-63"/>
      <use x="484.08203125" xlink:href="#BitstreamVeraSans-Roman-6f"/>
      <use x="545.263671875" xlink:href="#BitstreamVeraSans-Roman-6e"/>
      <use x="608.642578125" xlink:href="#BitstreamVeraSans-Roman-64"/>
      <use x="672.119140625" xlink:href="#BitstreamVeraSans-Roman-29"/>
     </g>
    </g>
   </g>
   <g id="matplotlib.axis_2">
    <g id="ytick_1">
     <g id="line2d_32">
      <path clip-path="url(#p6608d5733e)" d="
M40.5609 395.558
L845.07 395.558" style="fill:none;stroke:#000000;stroke-dasharray:1.000000,3.000000;stroke-dashoffset:0.0;stroke-linecap:butt;stroke-width:0.5;"/>
     </g>
     <g id="line2d_33">
      <defs>
       <path d="
M0 0
L4 0" id="me8a85f7bf6" style="stroke:#000000;stroke-linecap:butt;stroke-width:0.5;"/>
      </defs>
      <g>
       <use style="stroke:#000000;stroke-linecap:butt;stroke-width:0.5;" x="40.5609375" xlink:href="#me8a85f7bf6" y="395.5575"/>
      </g>
     </g>
     <g id="line2d_34">
      <defs>
       <path d="
M0 0
L-4 0" id="m1a32005dea" style="stroke:#000000;stroke-linecap:butt;stroke-width:0.5;"/>
      </defs>
      <g>
       <use style="stroke:#000000;stroke-linecap:butt;stroke-width:0.5;" x="845.06953125" xlink:href="#m1a32005dea" y="395.5575"/>
      </g>
     </g>
     <g id="text_12">
      <!-- 0.0 -->
      <defs>
       <path d="
M10.6875 12.4062
L21 12.4062
L21 0
L10.6875 0
z
" id="BitstreamVeraSans-Roman-2e"/>
      </defs>
      <g transform="translate(21.98125 399.19734375)scale(0.1 -0.1)">
       <use xlink:href="#BitstreamVeraSans-Roman-30"/>
       <use x="63.623046875" xlink:href="#BitstreamVeraSans-Roman-2e"/>
       <use x="95.41015625" xlink:href="#BitstreamVeraSans-Roman-30"/>
      </g>
     </g>
    </g>
    <g id="ytick_2">
     <g id="line2d_35">
      <path clip-path="url(#p6608d5733e)" d="
M40.5609 321.317
L845.07 321.317" style="fill:none;stroke:#000000;stroke-dasharray:1.000000,3.000000;stroke-dashoffset:0.0;stroke-linecap:butt;stroke-width:0.5;"/>
     </g>
     <g id="line2d_36">
      <g>
       <use style="stroke:#000000;stroke-linecap:butt;stroke-width:0.5;" x="40.5609375" xlink:href="#me8a85f7bf6" y="321.3175"/>
      </g>
     </g>
     <g id="line2d_37">
      <g>
       <use style="stroke:#000000;stroke-linecap:butt;stroke-width:0.5;" x="845.06953125" xlink:href="#m1a32005dea" y="321.3175"/>
      </g>
     </g>
     <g id="text_13">
      <!-- 0.2 -->
      <g transform="translate(22.31875 324.95734375)scale(0.1 -0.1)">
       <use xlink:href="#BitstreamVeraSans-Roman-30"/>
       <use x="63.623046875" xlink:href="#BitstreamVeraSans-Roman-2e"/>
       <use x="95.41015625" xlink:href="#BitstreamVeraSans-Roman-32"/>
      </g>
     </g>
    </g>
    <g id="ytick_3">
     <g id="line2d_38">
      <path clip-path="url(#p6608d5733e)" d="
M40.5609 247.077
L845.07 247.077" style="fill:none;stroke:#000000;stroke-dasharray:1.000000,3.000000;stroke-dashoffset:0.0;stroke-linecap:butt;stroke-width:0.5;"/>
     </g>
     <g id="line2d_39">
      <g>
       <use style="stroke:#000000;stroke-linecap:butt;stroke-width:0.5;" x="40.5609375" xlink:href="#me8a85f7bf6" y="247.0775"/>
      </g>
     </g>
     <g id="line2d_40">
      <g>
       <use style="stroke:#000000;stroke-linecap:butt;stroke-width:0.5;" x="845.06953125" xlink:href="#m1a32005dea" y="247.0775"/>
      </g>
     </g>
     <g id="text_14">
      <!-- 0.4 -->
      <g transform="translate(21.878125 250.71734375)scale(0.1 -0.1)">
       <use xlink:href="#BitstreamVeraSans-Roman-30"/>
       <use x="63.623046875" xlink:href="#BitstreamVeraSans-Roman-2e"/>
       <use x="95.41015625" xlink:href="#BitstreamVeraSans-Roman-34"/>
      </g>
     </g>
    </g>
    <g id="ytick_4">
     <g id="line2d_41">
      <path clip-path="url(#p6608d5733e)" d="
M40.5609 172.837
L845.07 172.837" style="fill:none;stroke:#000000;stroke-dasharray:1.000000,3.000000;stroke-dashoffset:0.0;stroke-linecap:butt;stroke-width:0.5;"/>
     </g>
     <g id="line2d_42">
      <g>
       <use style="stroke:#000000;stroke-linecap:butt;stroke-width:0.5;" x="40.5609375" xlink:href="#me8a85f7bf6" y="172.8375"/>
      </g>
     </g>
     <g id="line2d_43">
      <g>
       <use style="stroke:#000000;stroke-linecap:butt;stroke-width:0.5;" x="845.06953125" xlink:href="#m1a32005dea" y="172.8375"/>
      </g>
     </g>
     <g id="text_15">
      <!-- 0.6 -->
      <g transform="translate(21.946875 176.47734375)scale(0.1 -0.1)">
       <use xlink:href="#BitstreamVeraSans-Roman-30"/>
       <use x="63.623046875" xlink:href="#BitstreamVeraSans-Roman-2e"/>
       <use x="95.41015625" xlink:href="#BitstreamVeraSans-Roman-36"/>
      </g>
     </g>
    </g>
    <g id="ytick_5">
     <g id="line2d_44">
      <path clip-path="url(#p6608d5733e)" d="
M40.5609 98.5975
L845.07 98.5975" style="fill:none;stroke:#000000;stroke-dasharray:1.000000,3.000000;stroke-dashoffset:0.0;stroke-linecap:butt;stroke-width:0.5;"/>
     </g>
     <g id="line2d_45">
      <g>
       <use style="stroke:#000000;stroke-linecap:butt;stroke-width:0.5;" x="40.5609375" xlink:href="#me8a85f7bf6" y="98.5975"/>
      </g>
     </g>
     <g id="line2d_46">
      <g>
       <use style="stroke:#000000;stroke-linecap:butt;stroke-width:0.5;" x="845.06953125" xlink:href="#m1a32005dea" y="98.5975"/>
      </g>
     </g>
     <g id="text_16">
      <!-- 0.8 -->
      <g transform="translate(22.0015625 102.23734375)scale(0.1 -0.1)">
       <use xlink:href="#BitstreamVeraSans-Roman-30"/>
       <use x="63.623046875" xlink:href="#BitstreamVeraSans-Roman-2e"/>
       <use x="95.41015625" xlink:href="#BitstreamVeraSans-Roman-38"/>
      </g>
     </g>
    </g>
    <g id="ytick_6">
     <g id="line2d_47">
      <path clip-path="url(#p6608d5733e)" d="
M40.5609 24.3575
L845.07 24.3575" style="fill:none;stroke:#000000;stroke-dasharray:1.000000,3.000000;stroke-dashoffset:0.0;stroke-linecap:butt;stroke-width:0.5;"/>
     </g>
     <g id="line2d_48">
      <g>
       <use style="stroke:#000000;stroke-linecap:butt;stroke-width:0.5;" x="40.5609375" xlink:href="#me8a85f7bf6" y="24.3575"/>
      </g>
     </g>
     <g id="line2d_49">
      <g>
       <use style="stroke:#000000;stroke-linecap:butt;stroke-width:0.5;" x="845.06953125" xlink:href="#m1a32005dea" y="24.3575"/>
      </g>
     </g>
     <g id="text_17">
      <!-- 1.0 -->
      <g transform="translate(22.4203125 27.99734375)scale(0.1 -0.1)">
       <use xlink:href="#BitstreamVeraSans-Roman-31"/>
       <use x="63.623046875" xlink:href="#BitstreamVeraSans-Roman-2e"/>
       <use x="95.41015625" xlink:href="#BitstreamVeraSans-Roman-30"/>
      </g>
     </g>
    </g>
    <g id="text_18">
     <!-- Dispersion measure (relative to the spindle length) -->
     <defs>
      <path d="
M41.1094 46.2969
Q39.5938 47.1719 37.8125 47.5781
Q36.0312 48 33.8906 48
Q26.2656 48 22.1875 43.0469
Q18.1094 38.0938 18.1094 28.8125
L18.1094 0
L9.07812 0
L9.07812 54.6875
L18.1094 54.6875
L18.1094 46.1875
Q20.9531 51.1719 25.4844 53.5781
Q30.0312 56 36.5312 56
Q37.4531 56 38.5781 55.875
Q39.7031 55.7656 41.0625 55.5156
z
" id="BitstreamVeraSans-Roman-72"/>
      <path d="
M9.42188 75.9844
L18.4062 75.9844
L18.4062 0
L9.42188 0
z
" id="BitstreamVeraSans-Roman-6c"/>
      <path d="
M19.6719 64.7969
L19.6719 8.10938
L31.5938 8.10938
Q46.6875 8.10938 53.6875 14.9375
Q60.6875 21.7812 60.6875 36.5312
Q60.6875 51.1719 53.6875 57.9844
Q46.6875 64.7969 31.5938 64.7969
z

M9.8125 72.9062
L30.0781 72.9062
Q51.2656 72.9062 61.1719 64.0938
Q71.0938 55.2812 71.0938 36.5312
Q71.0938 17.6719 61.125 8.82812
Q51.1719 0 30.0781 0
L9.8125 0
z
" id="BitstreamVeraSans-Roman-44"/>
      <path d="
M54.8906 33.0156
L54.8906 0
L45.9062 0
L45.9062 32.7188
Q45.9062 40.4844 42.875 44.3281
Q39.8438 48.1875 33.7969 48.1875
Q26.5156 48.1875 22.3125 43.5469
Q18.1094 38.9219 18.1094 30.9062
L18.1094 0
L9.07812 0
L9.07812 75.9844
L18.1094 75.9844
L18.1094 46.1875
Q21.3438 51.125 25.7031 53.5625
Q30.0781 56 35.7969 56
Q45.2188 56 50.0469 50.1719
Q54.8906 44.3438 54.8906 33.0156" id="BitstreamVeraSans-Roman-68"/>
      <path d="
M2.98438 54.6875
L12.5 54.6875
L29.5938 8.79688
L46.6875 54.6875
L56.2031 54.6875
L35.6875 0
L23.4844 0
z
" id="BitstreamVeraSans-Roman-76"/>
      <path d="
M18.3125 70.2188
L18.3125 54.6875
L36.8125 54.6875
L36.8125 47.7031
L18.3125 47.7031
L18.3125 18.0156
Q18.3125 11.3281 20.1406 9.42188
Q21.9688 7.51562 27.5938 7.51562
L36.8125 7.51562
L36.8125 0
L27.5938 0
Q17.1875 0 13.2344 3.875
Q9.28125 7.76562 9.28125 18.0156
L9.28125 47.7031
L2.6875 47.7031
L2.6875 54.6875
L9.28125 54.6875
L9.28125 70.2188
z
" id="BitstreamVeraSans-Roman-74"/>
      <path d="
M8.5 21.5781
L8.5 54.6875
L17.4844 54.6875
L17.4844 21.9219
Q17.4844 14.1562 20.5 10.2656
Q23.5312 6.39062 29.5938 6.39062
Q36.8594 6.39062 41.0781 11.0312
Q45.3125 15.6719 45.3125 23.6875
L45.3125 54.6875
L54.2969 54.6875
L54.2969 0
L45.3125 0
L45.3125 8.40625
Q42.0469 3.42188 37.7188 1
Q33.4062 -1.42188 27.6875 -1.42188
Q18.2656 -1.42188 13.375 4.4375
Q8.5 10.2969 8.5 21.5781" id="BitstreamVeraSans-Roman-75"/>
      <path d="
M34.2812 27.4844
Q23.3906 27.4844 19.1875 25
Q14.9844 22.5156 14.9844 16.5
Q14.9844 11.7188 18.1406 8.90625
Q21.2969 6.10938 26.7031 6.10938
Q34.1875 6.10938 38.7031 11.4062
Q43.2188 16.7031 43.2188 25.4844
L43.2188 27.4844
z

M52.2031 31.2031
L52.2031 0
L43.2188 0
L43.2188 8.29688
Q40.1406 3.32812 35.5469 0.953125
Q30.9531 -1.42188 24.3125 -1.42188
Q15.9219 -1.42188 10.9531 3.29688
Q6 8.01562 6 15.9219
Q6 25.1406 12.1719 29.8281
Q18.3594 34.5156 30.6094 34.5156
L43.2188 34.5156
L43.2188 35.4062
Q43.2188 41.6094 39.1406 45
Q35.0625 48.3906 27.6875 48.3906
Q23 48.3906 18.5469 47.2656
Q14.1094 46.1406 10.0156 43.8906
L10.0156 52.2031
Q14.9375 54.1094 19.5781 55.0469
Q24.2188 56 28.6094 56
Q40.4844 56 46.3438 49.8438
Q52.2031 43.7031 52.2031 31.2031" id="BitstreamVeraSans-Roman-61"/>
      <path d="
M45.4062 27.9844
Q45.4062 37.75 41.375 43.1094
Q37.3594 48.4844 30.0781 48.4844
Q22.8594 48.4844 18.8281 43.1094
Q14.7969 37.75 14.7969 27.9844
Q14.7969 18.2656 18.8281 12.8906
Q22.8594 7.51562 30.0781 7.51562
Q37.3594 7.51562 41.375 12.8906
Q45.4062 18.2656 45.4062 27.9844
M54.3906 6.78125
Q54.3906 -7.17188 48.1875 -13.9844
Q42 -20.7969 29.2031 -20.7969
Q24.4688 -20.7969 20.2656 -20.0938
Q16.0625 -19.3906 12.1094 -17.9219
L12.1094 -9.1875
Q16.0625 -11.3281 19.9219 -12.3438
Q23.7812 -13.375 27.7812 -13.375
Q36.625 -13.375 41.0156 -8.76562
Q45.4062 -4.15625 45.4062 5.17188
L45.4062 9.625
Q42.625 4.78125 38.2812 2.39062
Q33.9375 0 27.875 0
Q17.8281 0 11.6719 7.65625
Q5.51562 15.3281 5.51562 27.9844
Q5.51562 40.6719 11.6719 48.3281
Q17.8281 56 27.875 56
Q33.9375 56 38.2812 53.6094
Q42.625 51.2188 45.4062 46.3906
L45.4062 54.6875
L54.3906 54.6875
z
" id="BitstreamVeraSans-Roman-67"/>
      <path d="
M18.1094 8.20312
L18.1094 -20.7969
L9.07812 -20.7969
L9.07812 54.6875
L18.1094 54.6875
L18.1094 46.3906
Q20.9531 51.2656 25.2656 53.625
Q29.5938 56 35.5938 56
Q45.5625 56 51.7812 48.0938
Q58.0156 40.1875 58.0156 27.2969
Q58.0156 14.4062 51.7812 6.48438
Q45.5625 -1.42188 35.5938 -1.42188
Q29.5938 -1.42188 25.2656 0.953125
Q20.9531 3.32812 18.1094 8.20312
M48.6875 27.2969
Q48.6875 37.2031 44.6094 42.8438
Q40.5312 48.4844 33.4062 48.4844
Q26.2656 48.4844 22.1875 42.8438
Q18.1094 37.2031 18.1094 27.2969
Q18.1094 17.3906 22.1875 11.75
Q26.2656 6.10938 33.4062 6.10938
Q40.5312 6.10938 44.6094 11.75
Q48.6875 17.3906 48.6875 27.2969" id="BitstreamVeraSans-Roman-70"/>
     </defs>
     <g transform="translate(16.878125 335.05671875)rotate(-90.0)scale(0.1 -0.1)">
      <use xlink:href="#BitstreamVeraSans-Roman-44"/>
      <use x="77.001953125" xlink:href="#BitstreamVeraSans-Roman-69"/>
      <use x="104.78515625" xlink:href="#BitstreamVeraSans-Roman-73"/>
      <use x="156.884765625" xlink:href="#BitstreamVeraSans-Roman-70"/>
      <use x="220.361328125" xlink:href="#BitstreamVeraSans-Roman-65"/>
      <use x="281.884765625" xlink:href="#BitstreamVeraSans-Roman-72"/>
      <use x="322.998046875" xlink:href="#BitstreamVeraSans-Roman-73"/>
      <use x="375.09765625" xlink:href="#BitstreamVeraSans-Roman-69"/>
      <use x="402.880859375" xlink:href="#BitstreamVeraSans-Roman-6f"/>
      <use x="464.0625" xlink:href="#BitstreamVeraSans-Roman-6e"/>
      <use x="527.44140625" xlink:href="#BitstreamVeraSans-Roman-20"/>
      <use x="559.228515625" xlink:href="#BitstreamVeraSans-Roman-6d"/>
      <use x="656.640625" xlink:href="#BitstreamVeraSans-Roman-65"/>
      <use x="718.1640625" xlink:href="#BitstreamVeraSans-Roman-61"/>
      <use x="779.443359375" xlink:href="#BitstreamVeraSans-Roman-73"/>
      <use x="831.54296875" xlink:href="#BitstreamVeraSans-Roman-75"/>
      <use x="894.921875" xlink:href="#BitstreamVeraSans-Roman-72"/>
      <use x="933.78515625" xlink:href="#BitstreamVeraSans-Roman-65"/>
      <use x="995.30859375" xlink:href="#BitstreamVeraSans-Roman-20"/>
      <use x="1027.09570312" xlink:href="#BitstreamVeraSans-Roman-28"/>
      <use x="1066.109375" xlink:href="#BitstreamVeraSans-Roman-72"/>
      <use x="1104.97265625" xlink:href="#BitstreamVeraSans-Roman-65"/>
      <use x="1166.49609375" xlink:href="#BitstreamVeraSans-Roman-6c"/>
      <use x="1194.27929688" xlink:href="#BitstreamVeraSans-Roman-61"/>
      <use x="1255.55859375" xlink:href="#BitstreamVeraSans-Roman-74"/>
      <use x="1294.76757812" xlink:href="#BitstreamVeraSans-Roman-69"/>
      <use x="1322.55078125" xlink:href="#BitstreamVeraSans-Roman-76"/>
      <use x="1381.73046875" xlink:href="#BitstreamVeraSans-Roman-65"/>
      <use x="1443.25390625" xlink:href="#BitstreamVeraSans-Roman-20"/>
      <use x="1475.04101562" xlink:href="#BitstreamVeraSans-Roman-74"/>
      <use x="1514.25" xlink:href="#BitstreamVeraSans-Roman-6f"/>
      <use x="1575.43164062" xlink:href="#BitstreamVeraSans-Roman-20"/>
      <use x="1607.21875" xlink:href="#BitstreamVeraSans-Roman-74"/>
      <use x="1646.42773438" xlink:href="#BitstreamVeraSans-Roman-68"/>
      <use x="1709.80664062" xlink:href="#BitstreamVeraSans-Roman-65"/>
      <use x="1771.33007812" xlink:href="#BitstreamVeraSans-Roman-20"/>
      <use x="1803.1171875" xlink:href="#BitstreamVeraSans-Roman-73"/>
      <use x="1855.21679688" xlink:href="#BitstreamVeraSans-Roman-70"/>
      <use x="1918.69335938" xlink:href="#BitstreamVeraSans-Roman-69"/>
      <use x="1946.4765625" xlink:href="#BitstreamVeraSans-Roman-6e"/>
      <use x="2009.85546875" xlink:href="#BitstreamVeraSans-Roman-64"/>
      <use x="2073.33203125" xlink:href="#BitstreamVeraSans-Roman-6c"/>
      <use x="2101.11523438" xlink:href="#BitstreamVeraSans-Roman-65"/>
      <use x="2162.63867188" xlink:href="#BitstreamVeraSans-Roman-20"/>
      <use x="2194.42578125" xlink:href="#BitstreamVeraSans-Roman-6c"/>
      <use x="2222.20898438" xlink:href="#BitstreamVeraSans-Roman-65"/>
      <use x="2283.73242188" xlink:href="#BitstreamVeraSans-Roman-6e"/>
      <use x="2347.11132812" xlink:href="#BitstreamVeraSans-Roman-67"/>
      <use x="2410.58789062" xlink:href="#BitstreamVeraSans-Roman-74"/>
      <use x="2449.796875" xlink:href="#BitstreamVeraSans-Roman-68"/>
      <use x="2513.17578125" xlink:href="#BitstreamVeraSans-Roman-29"/>
     </g>
    </g>
   </g>
   <g id="patch_3">
    <path d="
M40.5609 24.3575
L845.07 24.3575" style="fill:none;stroke:#000000;"/>
   </g>
   <g id="patch_4">
    <path d="
M845.07 395.558
L845.07 24.3575" style="fill:none;stroke:#000000;"/>
   </g>
   <g id="patch_5">
    <path d="
M40.5609 395.558
L845.07 395.558" style="fill:none;stroke:#000000;"/>
   </g>
   <g id="patch_6">
    <path d="
M40.5609 395.558
L40.5609 24.3575" style="fill:none;stroke:#000000;"/>
   </g>
   <g id="patch_7">
    <path d="
M684.168 380.063
Q684.168 386.81 684.168 392.438" style="fill:none;stroke:#000000;stroke-linecap:round;"/>
    <path d="
M686.168 388.438
L684.168 392.438
L682.168 388.438" style="fill:none;stroke:#000000;stroke-linecap:round;"/>
   </g>
   <g id="text_19">
    <g id="patch_8">
     <path d="
M631.483 377.558
L736.853 377.558
Q738.853 377.558 738.853 375.558
L738.853 365.879
Q738.853 363.879 736.853 363.879
L631.483 363.879
Q629.483 363.879 629.483 365.879
L629.483 375.558
Q629.483 377.558 631.483 377.558
z
" style="fill:#ffff00;opacity:0.3;stroke:#000000;"/>
    </g>
    <!-- Anaphase onset: 720 -->
    <defs>
     <path d="
M11.7188 12.4062
L22.0156 12.4062
L22.0156 0
L11.7188 0
z

M11.7188 51.7031
L22.0156 51.7031
L22.0156 39.3125
L11.7188 39.3125
z
" id="BitstreamVeraSans-Roman-3a"/>
     <path d="
M34.1875 63.1875
L20.7969 26.9062
L47.6094 26.9062
z

M28.6094 72.9062
L39.7969 72.9062
L67.5781 0
L57.3281 0
L50.6875 18.7031
L17.8281 18.7031
L11.1875 0
L0.78125 0
z
" id="BitstreamVeraSans-Roman-41"/>
    </defs>
    <g transform="translate(631.48265625 373.4778125)scale(0.1 -0.1)">
     <use xlink:href="#BitstreamVeraSans-Roman-41"/>
     <use x="68.408203125" xlink:href="#BitstreamVeraSans-Roman-6e"/>
     <use x="131.787109375" xlink:href="#BitstreamVeraSans-Roman-61"/>
     <use x="193.06640625" xlink:href="#BitstreamVeraSans-Roman-70"/>
     <use x="256.54296875" xlink:href="#BitstreamVeraSans-Roman-68"/>
     <use x="319.921875" xlink:href="#BitstreamVeraSans-Roman-61"/>
     <use x="381.201171875" xlink:href="#BitstreamVeraSans-Roman-73"/>
     <use x="433.30078125" xlink:href="#BitstreamVeraSans-Roman-65"/>
     <use x="494.82421875" xlink:href="#BitstreamVeraSans-Roman-20"/>
     <use x="526.611328125" xlink:href="#BitstreamVeraSans-Roman-6f"/>
     <use x="587.79296875" xlink:href="#BitstreamVeraSans-Roman-6e"/>
     <use x="651.171875" xlink:href="#BitstreamVeraSans-Roman-73"/>
     <use x="703.271484375" xlink:href="#BitstreamVeraSans-Roman-65"/>
     <use x="764.794921875" xlink:href="#BitstreamVeraSans-Roman-74"/>
     <use x="804.00390625" xlink:href="#BitstreamVeraSans-Roman-3a"/>
     <use x="837.6953125" xlink:href="#BitstreamVeraSans-Roman-20"/>
     <use x="869.482421875" xlink:href="#BitstreamVeraSans-Roman-37"/>
     <use x="933.10546875" xlink:href="#BitstreamVeraSans-Roman-32"/>
     <use x="996.728515625" xlink:href="#BitstreamVeraSans-Roman-30"/>
    </g>
   </g>
   <g id="text_20">
    <!-- Mitotic plate formation -->
    <defs>
     <path d="
M9.8125 72.9062
L24.5156 72.9062
L43.1094 23.2969
L61.8125 72.9062
L76.5156 72.9062
L76.5156 0
L66.8906 0
L66.8906 64.0156
L48.0938 14.0156
L38.1875 14.0156
L19.3906 64.0156
L19.3906 0
L9.8125 0
z
" id="BitstreamVeraSans-Roman-4d"/>
     <path d="
M37.1094 75.9844
L37.1094 68.5
L28.5156 68.5
Q23.6875 68.5 21.7969 66.5469
Q19.9219 64.5938 19.9219 59.5156
L19.9219 54.6875
L34.7188 54.6875
L34.7188 47.7031
L19.9219 47.7031
L19.9219 0
L10.8906 0
L10.8906 47.7031
L2.29688 47.7031
L2.29688 54.6875
L10.8906 54.6875
L10.8906 58.5
Q10.8906 67.625 15.1406 71.7969
Q19.3906 75.9844 28.6094 75.9844
z
" id="BitstreamVeraSans-Roman-66"/>
    </defs>
    <g transform="translate(352.353984375 19.3575)scale(0.16 -0.16)">
     <use xlink:href="#BitstreamVeraSans-Roman-4d"/>
     <use x="86.279296875" xlink:href="#BitstreamVeraSans-Roman-69"/>
     <use x="114.0625" xlink:href="#BitstreamVeraSans-Roman-74"/>
     <use x="153.271484375" xlink:href="#BitstreamVeraSans-Roman-6f"/>
     <use x="214.453125" xlink:href="#BitstreamVeraSans-Roman-74"/>
     <use x="253.662109375" xlink:href="#BitstreamVeraSans-Roman-69"/>
     <use x="281.4453125" xlink:href="#BitstreamVeraSans-Roman-63"/>
     <use x="336.42578125" xlink:href="#BitstreamVeraSans-Roman-20"/>
     <use x="368.212890625" xlink:href="#BitstreamVeraSans-Roman-70"/>
     <use x="431.689453125" xlink:href="#BitstreamVeraSans-Roman-6c"/>
     <use x="459.47265625" xlink:href="#BitstreamVeraSans-Roman-61"/>
     <use x="520.751953125" xlink:href="#BitstreamVeraSans-Roman-74"/>
     <use x="559.9609375" xlink:href="#BitstreamVeraSans-Roman-65"/>
     <use x="621.484375" xlink:href="#BitstreamVeraSans-Roman-20"/>
     <use x="653.271484375" xlink:href="#BitstreamVeraSans-Roman-66"/>
     <use x="688.4765625" xlink:href="#BitstreamVeraSans-Roman-6f"/>
     <use x="749.658203125" xlink:href="#BitstreamVeraSans-Roman-72"/>
     <use x="789.021484375" xlink:href="#BitstreamVeraSans-Roman-6d"/>
     <use x="886.43359375" xlink:href="#BitstreamVeraSans-Roman-61"/>
     <use x="947.712890625" xlink:href="#BitstreamVeraSans-Roman-74"/>
     <use x="986.921875" xlink:href="#BitstreamVeraSans-Roman-69"/>
     <use x="1014.70507812" xlink:href="#BitstreamVeraSans-Roman-6f"/>
     <use x="1075.88671875" xlink:href="#BitstreamVeraSans-Roman-6e"/>
    </g>
   </g>
  </g>
 </g>
 <defs>
  <clipPath id="p6608d5733e">
   <rect height="371.2" width="804.50859375" x="40.5609375" y="24.3575"/>
  </clipPath>
 </defs>
</svg>
